<mxfile host="app.diagrams.net" modified="2021-07-07T14:13:59.442Z" agent="5.0 (Macintosh; Intel Mac OS X 10_15_7) AppleWebKit/537.36 (KHTML, like Gecko) Chrome/91.0.4472.114 Safari/537.36" etag="jwXHRlRFQ9FiEidBoja3" version="14.8.4" type="github">
  <diagram id="VKosUYGvFi4gm1LEwZWU" name="Page-1">
    <mxGraphModel dx="1242" dy="809" grid="1" gridSize="10" guides="1" tooltips="1" connect="1" arrows="1" fold="1" page="1" pageScale="1" pageWidth="827" pageHeight="1169" math="0" shadow="0">
      <root>
        <mxCell id="0" />
        <mxCell id="1" parent="0" />
        <mxCell id="_uXAPcKMIuUIfl-0hNTI-1" value="MySQL DB &#xa;instance" style="outlineConnect=0;fontColor=#232F3E;gradientColor=none;strokeColor=#232F3E;fillColor=#ffffff;dashed=0;verticalLabelPosition=bottom;verticalAlign=top;align=center;html=1;fontSize=12;fontStyle=0;aspect=fixed;shape=mxgraph.aws4.resourceIcon;resIcon=mxgraph.aws4.mysql_db_instance;" vertex="1" parent="1">
          <mxGeometry x="380" y="380" width="60" height="60" as="geometry" />
        </mxCell>
        <mxCell id="_uXAPcKMIuUIfl-0hNTI-2" value="" style="aspect=fixed;html=1;points=[];align=center;image;fontSize=12;image=img/lib/mscae/Azure_Database_for_MySQL_servers.svg;" vertex="1" parent="1">
          <mxGeometry x="100" y="110" width="38" height="50" as="geometry" />
        </mxCell>
        <mxCell id="_uXAPcKMIuUIfl-0hNTI-3" value="" style="outlineConnect=0;dashed=0;verticalLabelPosition=bottom;verticalAlign=top;align=center;html=1;shape=mxgraph.aws3.database_migration_workflow_job;fillColor=#2E73B8;gradientColor=none;pointerEvents=1" vertex="1" parent="1">
          <mxGeometry x="220" y="180" width="46.5" height="87" as="geometry" />
        </mxCell>
        <mxCell id="_uXAPcKMIuUIfl-0hNTI-4" value="" style="shape=image;html=1;verticalAlign=top;verticalLabelPosition=bottom;labelBackgroundColor=#ffffff;imageAspect=0;aspect=fixed;image=https://cdn0.iconfinder.com/data/icons/maternity-and-pregnancy-2/512/142_clipboard_Business_diagram_flow_process_work_workflow-128.png" vertex="1" parent="1">
          <mxGeometry x="150" y="300" width="128" height="128" as="geometry" />
        </mxCell>
        <mxCell id="_uXAPcKMIuUIfl-0hNTI-5" value="" style="shape=image;html=1;verticalAlign=top;verticalLabelPosition=bottom;labelBackgroundColor=#ffffff;imageAspect=0;aspect=fixed;image=https://cdn2.iconfinder.com/data/icons/seo-web-1-filled-outline/64/algorithm-scheme-workflow-128.png" vertex="1" parent="1">
          <mxGeometry x="450" y="80" width="128" height="128" as="geometry" />
        </mxCell>
      </root>
    </mxGraphModel>
  </diagram>
</mxfile>
